<svg height="2526" width="720" xmlns="http://www.w3.org/2000/svg">
<rect height="2526" fill="#555" width="720"></rect>
<text fill="#7f7" font-family="Courier New" font-size="12" xml:space="preserve">
<tspan x="10" y="26">32 megabytes installed</tspan>
<tspan x="10" y="42"></tspan>
<tspan x="10" y="58">node_modules</tspan>
<tspan x="10" y="74">└─┬ node-svm@2.1.8 </tspan>
<tspan x="10" y="90">  ├── abbrev@1.1.0 </tspan>
<tspan x="10" y="106">  ├─┬ cardinal@0.4.4 </tspan>
<tspan x="10" y="122">  │ ├── ansicolors@0.2.1 </tspan>
<tspan x="10" y="138">  │ └─┬ redeyed@0.4.4 </tspan>
<tspan x="10" y="154">  │   └── esprima@1.0.4 </tspan>
<tspan x="10" y="170">  ├─┬ chalk@0.5.1 </tspan>
<tspan x="10" y="186">  │ ├── ansi-styles@1.1.0 </tspan>
<tspan x="10" y="202">  │ ├── escape-string-regexp@1.0.5 </tspan>
<tspan x="10" y="218">  │ ├─┬ has-ansi@0.1.0 </tspan>
<tspan x="10" y="234">  │ │ └── ansi-regex@0.2.1 </tspan>
<tspan x="10" y="250">  │ ├── strip-ansi@0.3.0 </tspan>
<tspan x="10" y="266">  │ └── supports-color@0.2.0 </tspan>
<tspan x="10" y="282">  ├── graceful-fs@4.1.11 </tspan>
<tspan x="10" y="298">  ├─┬ handlebars@2.0.0 </tspan>
<tspan x="10" y="314">  │ ├── optimist@0.3.7 </tspan>
<tspan x="10" y="330">  │ └─┬ uglify-js@2.3.6 </tspan>
<tspan x="10" y="346">  │   ├── async@0.2.10 </tspan>
<tspan x="10" y="362">  │   ├── optimist@0.3.7 </tspan>
<tspan x="10" y="378">  │   └─┬ source-map@0.1.43 </tspan>
<tspan x="10" y="394">  │     └── amdefine@1.0.1 </tspan>
<tspan x="10" y="410">  ├─┬ inquirer@0.8.5 </tspan>
<tspan x="10" y="426">  │ ├── ansi-regex@1.1.1 </tspan>
<tspan x="10" y="442">  │ ├─┬ chalk@1.1.3 </tspan>
<tspan x="10" y="458">  │ │ ├── ansi-styles@2.2.1 </tspan>
<tspan x="10" y="474">  │ │ ├─┬ has-ansi@2.0.0 </tspan>
<tspan x="10" y="490">  │ │ │ └── ansi-regex@2.1.1 </tspan>
<tspan x="10" y="506">  │ │ ├─┬ strip-ansi@3.0.1 </tspan>
<tspan x="10" y="522">  │ │ │ └── ansi-regex@2.1.1 </tspan>
<tspan x="10" y="538">  │ │ └── supports-color@2.0.0 </tspan>
<tspan x="10" y="554">  │ ├── cli-width@1.1.1 </tspan>
<tspan x="10" y="570">  │ ├─┬ figures@1.7.0 </tspan>
<tspan x="10" y="586">  │ │ └── object-assign@4.1.1 </tspan>
<tspan x="10" y="602">  │ ├── lodash@3.10.1 </tspan>
<tspan x="10" y="618">  │ ├─┬ readline2@0.1.1 </tspan>
<tspan x="10" y="634">  │ │ ├── mute-stream@0.0.4 </tspan>
<tspan x="10" y="650">  │ │ └─┬ strip-ansi@2.0.1 </tspan>
<tspan x="10" y="666">  │ │   └── ansi-regex@1.1.1 </tspan>
<tspan x="10" y="682">  │ ├── rx@2.5.3 </tspan>
<tspan x="10" y="698">  │ └── through@2.3.8 </tspan>
<tspan x="10" y="714">  ├── moment@2.18.1 </tspan>
<tspan x="10" y="730">  ├── mout@0.11.1 </tspan>
<tspan x="10" y="746">  ├── nan@2.6.2 </tspan>
<tspan x="10" y="762">  ├─┬ node-gyp@1.0.3 </tspan>
<tspan x="10" y="778">  │ ├─┬ fstream@1.0.11 </tspan>
<tspan x="10" y="794">  │ │ └── inherits@2.0.3 </tspan>
<tspan x="10" y="810">  │ ├─┬ glob@4.5.3 </tspan>
<tspan x="10" y="826">  │ │ ├─┬ inflight@1.0.6 </tspan>
<tspan x="10" y="842">  │ │ │ └── wrappy@1.0.2 </tspan>
<tspan x="10" y="858">  │ │ ├─┬ minimatch@2.0.10 </tspan>
<tspan x="10" y="874">  │ │ │ └─┬ brace-expansion@1.1.7 </tspan>
<tspan x="10" y="890">  │ │ │   ├── balanced-match@0.4.2 </tspan>
<tspan x="10" y="906">  │ │ │   └── concat-map@0.0.1 </tspan>
<tspan x="10" y="922">  │ │ └── once@1.4.0 </tspan>
<tspan x="10" y="938">  │ ├─┬ graceful-fs@3.0.11 </tspan>
<tspan x="10" y="954">  │ │ └── natives@1.1.0 </tspan>
<tspan x="10" y="970">  │ ├─┬ minimatch@1.0.0 </tspan>
<tspan x="10" y="986">  │ │ ├── lru-cache@2.7.3 </tspan>
<tspan x="10" y="1002">  │ │ └── sigmund@1.0.1 </tspan>
<tspan x="10" y="1018">  │ ├── mkdirp@0.5.1 </tspan>
<tspan x="10" y="1034">  │ ├─┬ npmlog@1.2.1 </tspan>
<tspan x="10" y="1050">  │ │ ├── ansi@0.3.1 </tspan>
<tspan x="10" y="1066">  │ │ ├─┬ are-we-there-yet@1.0.6 </tspan>
<tspan x="10" y="1082">  │ │ │ ├── delegates@1.0.0 </tspan>
<tspan x="10" y="1098">  │ │ │ └─┬ readable-stream@2.2.9 </tspan>
<tspan x="10" y="1114">  │ │ │   ├── buffer-shims@1.0.0 </tspan>
<tspan x="10" y="1130">  │ │ │   ├── core-util-is@1.0.2 </tspan>
<tspan x="10" y="1146">  │ │ │   ├── isarray@1.0.0 </tspan>
<tspan x="10" y="1162">  │ │ │   ├── process-nextick-args@1.0.7 </tspan>
<tspan x="10" y="1178">  │ │ │   ├── string_decoder@1.0.0 </tspan>
<tspan x="10" y="1194">  │ │ │   └── util-deprecate@1.0.2 </tspan>
<tspan x="10" y="1210">  │ │ └─┬ gauge@1.2.7 </tspan>
<tspan x="10" y="1226">  │ │   ├── has-unicode@2.0.1 </tspan>
<tspan x="10" y="1242">  │ │   ├── lodash.pad@4.5.1 </tspan>
<tspan x="10" y="1258">  │ │   ├── lodash.padend@4.6.1 </tspan>
<tspan x="10" y="1274">  │ │   └── lodash.padstart@4.6.1 </tspan>
<tspan x="10" y="1290">  │ ├─┬ request@2.81.0 </tspan>
<tspan x="10" y="1306">  │ │ ├── aws-sign2@0.6.0 </tspan>
<tspan x="10" y="1322">  │ │ ├── aws4@1.6.0 </tspan>
<tspan x="10" y="1338">  │ │ ├── caseless@0.12.0 </tspan>
<tspan x="10" y="1354">  │ │ ├─┬ combined-stream@1.0.5 </tspan>
<tspan x="10" y="1370">  │ │ │ └── delayed-stream@1.0.0 </tspan>
<tspan x="10" y="1386">  │ │ ├── extend@3.0.0 </tspan>
<tspan x="10" y="1402">  │ │ ├── forever-agent@0.6.1 </tspan>
<tspan x="10" y="1418">  │ │ ├─┬ form-data@2.1.4 </tspan>
<tspan x="10" y="1434">  │ │ │ └── asynckit@0.4.0 </tspan>
<tspan x="10" y="1450">  │ │ ├─┬ har-validator@4.2.1 </tspan>
<tspan x="10" y="1466">  │ │ │ ├─┬ ajv@4.11.7 </tspan>
<tspan x="10" y="1482">  │ │ │ │ ├── co@4.6.0 </tspan>
<tspan x="10" y="1498">  │ │ │ │ └─┬ json-stable-stringify@1.0.1 </tspan>
<tspan x="10" y="1514">  │ │ │ │   └── jsonify@0.0.0 </tspan>
<tspan x="10" y="1530">  │ │ │ └── har-schema@1.0.5 </tspan>
<tspan x="10" y="1546">  │ │ ├─┬ hawk@3.1.3 </tspan>
<tspan x="10" y="1562">  │ │ │ ├── boom@2.10.1 </tspan>
<tspan x="10" y="1578">  │ │ │ ├── cryptiles@2.0.5 </tspan>
<tspan x="10" y="1594">  │ │ │ ├── hoek@2.16.3 </tspan>
<tspan x="10" y="1610">  │ │ │ └── sntp@1.0.9 </tspan>
<tspan x="10" y="1626">  │ │ ├─┬ http-signature@1.1.1 </tspan>
<tspan x="10" y="1642">  │ │ │ ├── assert-plus@0.2.0 </tspan>
<tspan x="10" y="1658">  │ │ │ ├─┬ jsprim@1.4.0 </tspan>
<tspan x="10" y="1674">  │ │ │ │ ├── assert-plus@1.0.0 </tspan>
<tspan x="10" y="1690">  │ │ │ │ ├── extsprintf@1.0.2 </tspan>
<tspan x="10" y="1706">  │ │ │ │ ├── json-schema@0.2.3 </tspan>
<tspan x="10" y="1722">  │ │ │ │ └── verror@1.3.6 </tspan>
<tspan x="10" y="1738">  │ │ │ └─┬ sshpk@1.13.0 </tspan>
<tspan x="10" y="1754">  │ │ │   ├── asn1@0.2.3 </tspan>
<tspan x="10" y="1770">  │ │ │   ├── assert-plus@1.0.0 </tspan>
<tspan x="10" y="1786">  │ │ │   ├── bcrypt-pbkdf@1.0.1 </tspan>
<tspan x="10" y="1802">  │ │ │   ├─┬ dashdash@1.14.1 </tspan>
<tspan x="10" y="1818">  │ │ │   │ └── assert-plus@1.0.0 </tspan>
<tspan x="10" y="1834">  │ │ │   ├── ecc-jsbn@0.1.1 </tspan>
<tspan x="10" y="1850">  │ │ │   ├─┬ getpass@0.1.6 </tspan>
<tspan x="10" y="1866">  │ │ │   │ └── assert-plus@1.0.0 </tspan>
<tspan x="10" y="1882">  │ │ │   ├── jodid25519@1.0.2 </tspan>
<tspan x="10" y="1898">  │ │ │   ├── jsbn@0.1.1 </tspan>
<tspan x="10" y="1914">  │ │ │   └── tweetnacl@0.14.5 </tspan>
<tspan x="10" y="1930">  │ │ ├── is-typedarray@1.0.0 </tspan>
<tspan x="10" y="1946">  │ │ ├── isstream@0.1.2 </tspan>
<tspan x="10" y="1962">  │ │ ├── json-stringify-safe@5.0.1 </tspan>
<tspan x="10" y="1978">  │ │ ├─┬ mime-types@2.1.15 </tspan>
<tspan x="10" y="1994">  │ │ │ └── mime-db@1.27.0 </tspan>
<tspan x="10" y="2010">  │ │ ├── oauth-sign@0.8.2 </tspan>
<tspan x="10" y="2026">  │ │ ├── performance-now@0.2.0 </tspan>
<tspan x="10" y="2042">  │ │ ├── qs@6.4.0 </tspan>
<tspan x="10" y="2058">  │ │ ├── safe-buffer@5.0.1 </tspan>
<tspan x="10" y="2074">  │ │ ├── stringstream@0.0.5 </tspan>
<tspan x="10" y="2090">  │ │ ├─┬ tough-cookie@2.3.2 </tspan>
<tspan x="10" y="2106">  │ │ │ └── punycode@1.4.1 </tspan>
<tspan x="10" y="2122">  │ │ ├── tunnel-agent@0.6.0 </tspan>
<tspan x="10" y="2138">  │ │ └── uuid@3.0.1 </tspan>
<tspan x="10" y="2154">  │ ├─┬ rimraf@2.6.1 </tspan>
<tspan x="10" y="2170">  │ │ └─┬ glob@7.1.1 </tspan>
<tspan x="10" y="2186">  │ │   ├── fs.realpath@1.0.0 </tspan>
<tspan x="10" y="2202">  │ │   ├── minimatch@3.0.3 </tspan>
<tspan x="10" y="2218">  │ │   └── path-is-absolute@1.0.1 </tspan>
<tspan x="10" y="2234">  │ ├── semver@4.3.6 </tspan>
<tspan x="10" y="2250">  │ ├─┬ tar@1.0.3 </tspan>
<tspan x="10" y="2266">  │ │ └── block-stream@0.0.9 </tspan>
<tspan x="10" y="2282">  │ └─┬ which@1.2.14 </tspan>
<tspan x="10" y="2298">  │   └── isexe@2.0.0 </tspan>
<tspan x="10" y="2314">  ├── nopt@3.0.6 </tspan>
<tspan x="10" y="2330">  ├── numeric@1.2.6 </tspan>
<tspan x="10" y="2346">  ├─┬ optimist@0.6.1 </tspan>
<tspan x="10" y="2362">  │ ├── minimist@0.0.8 </tspan>
<tspan x="10" y="2378">  │ └── wordwrap@0.0.3 </tspan>
<tspan x="10" y="2394">  ├─┬ osenv@0.1.4 </tspan>
<tspan x="10" y="2410">  │ ├── os-homedir@1.0.2 </tspan>
<tspan x="10" y="2426">  │ └── os-tmpdir@1.0.2 </tspan>
<tspan x="10" y="2442">  ├─┬ promptly@0.2.1 </tspan>
<tspan x="10" y="2458">  │ └── read@1.0.7 </tspan>
<tspan x="10" y="2474">  ├── q@1.5.0 </tspan>
<tspan x="10" y="2490">  ├── stringify-object@1.0.1 </tspan>
<tspan x="10" y="2506">  └── underscore@1.8.3</tspan>
</text>
</svg>
